<?xml version="1.0" encoding="utf-8"?>
<!-- Generator: Adobe Illustrator 14.0.0, SVG Export Plug-In . SVG Version: 6.00 Build 43363)  -->
<!DOCTYPE svg PUBLIC "-//W3C//DTD SVG 1.1//EN" "http://www.w3.org/Graphics/SVG/1.1/DTD/svg11.dtd">
<svg version="1.1" id="svg2" xmlns:svg="http://www.w3.org/2000/svg"
	 xmlns="http://www.w3.org/2000/svg" xmlns:xlink="http://www.w3.org/1999/xlink" x="0px" y="0px" width="600px" height="600px"
	 viewBox="0 0 600 600" enable-background="new 0 0 600 600" xml:space="preserve">
<path id="X" fill="#F60000" d="M3.226,500.606c0-9.353,40.533-56.312,90.072-104.354s97.282-94.69,106.094-103.662
	c8.812-8.972-0.34-61.05-20.339-115.729c-41.43-113.274-45.206-150.941-16.607-165.64c39.088-20.09,92.734,9.589,137.764,76.219
	l45.619,67.5l85.668-69.92c56.33-45.975,96.54-66.45,117.413-59.789c41.3,13.18,65.134,64.751,33.924,73.403
	c-35.425,9.82-182.041,195.369-181.763,230.027c0.132,16.412,20.964,59.975,46.294,96.805
	c17.866,25.979,41.882,46.478,32.349,60.568l-50.961,75.322c-9.884,14.609-46.392-24.34-89.639-62.147l-75.441-65.951
	l-83.634,82.484c-45.999,45.366-88.944,82.251-95.433,81.965C78.116,597.422,3.226,509.958,3.226,500.606z"/>
</svg>
